<svg width="130" height="36" viewBox="0 0 130 36" fill="none" xmlns="http://www.w3.org/2000/svg">
<g clip-path="url(#clip0_13_4157)">
<rect y="0.5" width="35" height="35" rx="17.5" fill="#1D97FE"/>
<path d="M21.2773 10.0714L27.1626 7.37866V20.3742L23.3902 22.0803V10.0714H21.2773Z" fill="#F0F6FB"/>
<path d="M13.7236 10.0714L7.83839 7.37866V20.3742L11.6107 22.0803V10.0714H13.7236Z" fill="#F0F6FB"/>
<path d="M7.83791 21.72L17.4983 26.05L27.1622 21.72V26.05L17.4983 30.2693L7.83789 26.05L7.83791 21.72Z" fill="#F0F6FB"/>
<path d="M15.3936 27.1953H19.6061V42.4928L17.4074 44.2875L15.3936 42.4928V27.1953Z" fill="#F0F6FB"/>
<path d="M15.3943 6.41362L12.8711 5.03401L17.5006 3.13455L22.0916 5.03401L19.6069 6.41362L19.607 23.5963L17.5008 24.4926L15.3945 23.5963L15.3943 6.41362Z" fill="#F0F6FB"/>
</g>
<path d="M51.104 24.125V13.901H47.072V11.525H58.052V13.901H54.02V24.125H51.104ZM59.621 24.125V11.525H65.075C66.203 11.525 67.175 11.711 67.991 12.083C68.807 12.443 69.437 12.965 69.881 13.649C70.325 14.333 70.547 15.149 70.547 16.097C70.547 17.033 70.325 17.843 69.881 18.527C69.437 19.199 68.807 19.715 67.991 20.075C67.175 20.435 66.203 20.615 65.075 20.615H61.241L62.537 19.337V24.125H59.621ZM67.631 24.125L64.481 19.553H67.595L70.781 24.125H67.631ZM62.537 19.661L61.241 18.293H64.913C65.813 18.293 66.485 18.101 66.929 17.717C67.373 17.321 67.595 16.781 67.595 16.097C67.595 15.401 67.373 14.861 66.929 14.477C66.485 14.093 65.813 13.901 64.913 13.901H61.241L62.537 12.515V19.661ZM72.8573 24.125V11.525H75.7733V24.125H72.8573ZM78.7635 24.125V11.525H84.4875C85.8555 11.525 87.0615 11.789 88.1055 12.317C89.1495 12.833 89.9655 13.559 90.5535 14.495C91.1415 15.431 91.4355 16.541 91.4355 17.825C91.4355 19.097 91.1415 20.207 90.5535 21.155C89.9655 22.091 89.1495 22.823 88.1055 23.351C87.0615 23.867 85.8555 24.125 84.4875 24.125H78.7635ZM81.6795 21.731H84.3435C85.1835 21.731 85.9095 21.575 86.5215 21.263C87.1455 20.939 87.6255 20.483 87.9615 19.895C88.3095 19.307 88.4835 18.617 88.4835 17.825C88.4835 17.021 88.3095 16.331 87.9615 15.755C87.6255 15.167 87.1455 14.717 86.5215 14.405C85.9095 14.081 85.1835 13.919 84.3435 13.919H81.6795V21.731ZM96.3166 16.601H102.383V18.869H96.3166V16.601ZM96.5326 21.785H103.391V24.125H93.6346V11.525H103.157V13.865H96.5326V21.785ZM105.711 24.125V11.525H108.123L115.557 20.597H114.387V11.525H117.267V24.125H114.873L107.421 15.053H108.591V24.125H105.711ZM122.858 24.125V13.901H118.826V11.525H129.806V13.901H125.774V24.125H122.858Z" fill="#F0F6FB"/>
<defs>
<clipPath id="clip0_13_4157">
<rect y="0.5" width="35" height="35" rx="17.5" fill="white"/>
</clipPath>
</defs>
</svg>
